<svg width="31" height="31" viewBox="0 0 31 31" fill="none" xmlns="http://www.w3.org/2000/svg">
<path d="M3.94292 2.47977C2.8001 2.5871 1.88233 3.4968 1.86011 4.60134C2.10978 12.0876 4.47986 18.1154 8.78667 22.2422C13.0935 26.3691 19.276 28.5329 26.9507 28.5197C28.2101 28.5253 29.078 27.4612 29.1014 26.3885C29.1141 24.6196 29.1278 22.8466 29.1401 21.0798C29.1401 19.8454 28.0215 19.0445 26.9895 19.0357C25.3998 19.0419 23.1835 18.4641 21.3901 18.0185C21.0839 17.9445 20.7424 18.0393 20.5182 18.2607L17.5635 21.1282C14.0041 18.9907 12.3738 17.4158 10.1817 13.9692L13.117 11.1307C13.3546 10.9012 13.4547 10.5391 13.3689 10.2201C12.8855 8.4108 12.0888 6.0534 12.216 4.39792C12.0901 3.10549 10.8638 2.47285 9.89104 2.47979C7.82059 2.47976 5.7154 2.47981 3.94292 2.47977H3.94292ZM3.95259 4.33977C5.94398 4.33977 7.94119 4.33977 9.92978 4.33977C10.2301 4.34548 10.2301 4.34548 10.3754 4.62071C10.3202 6.61615 10.9751 8.63201 11.4217 10.1813L8.34103 13.1845C8.04092 13.4759 7.97732 13.9805 8.19572 14.3373C10.8455 18.6325 12.8106 20.5384 17.2245 23.1141C17.5717 23.3159 18.0499 23.2577 18.3385 22.9785L21.4482 19.9463C23.1348 20.3724 25.1585 20.903 26.9992 20.8957C27.1326 20.9208 27.264 21.1097 27.2801 21.1282L27.2413 26.3788C27.1767 26.5302 27.2801 26.6654 26.8926 26.6597C19.596 26.6597 13.9654 24.6235 10.0751 20.8957C6.17416 17.1577 3.95791 11.6645 3.72009 4.53352C3.72011 4.34549 3.72011 4.34549 3.95259 4.33977Z" fill="#69A54D"/>
</svg>
